<svg width="132" height="15" viewBox="0 0 132 15" fill="none" xmlns="http://www.w3.org/2000/svg">
<path d="M0.763364 14.6465V12.7265H2.64336V2.56648H0.763364V0.646483H7.86336C8.70336 0.646483 9.4367 0.79315 10.0634 1.08648C10.69 1.36648 11.1767 1.77315 11.5234 2.30648C11.8834 2.82648 12.0634 3.44648 12.0634 4.16648V4.36648C12.0634 5.00648 11.9434 5.53315 11.7034 5.94648C11.4634 6.35982 11.17 6.67982 10.8234 6.90648C10.49 7.13315 10.17 7.29315 9.86336 7.38648V7.70648C10.17 7.78648 10.4967 7.94648 10.8434 8.18648C11.2034 8.41315 11.5034 8.73315 11.7434 9.14648C11.9967 9.55982 12.1234 10.0998 12.1234 10.7665V10.9665C12.1234 11.7398 11.9434 12.3998 11.5834 12.9465C11.2234 13.4932 10.7234 13.9132 10.0834 14.2065C9.4567 14.4998 8.73003 14.6465 7.90336 14.6465H0.763364ZM4.82336 12.6865H7.64336C8.36336 12.6865 8.93003 12.5132 9.34336 12.1665C9.7567 11.8198 9.96336 11.3398 9.96336 10.7265V10.5465C9.96336 9.93315 9.7567 9.45315 9.34336 9.10648C8.94336 8.75982 8.3767 8.58648 7.64336 8.58648H4.82336V12.6865ZM4.82336 6.60648H7.64336C8.32336 6.60648 8.87003 6.43982 9.28336 6.10648C9.6967 5.75982 9.90336 5.29315 9.90336 4.70648V4.50648C9.90336 3.91982 9.6967 3.45982 9.28336 3.12648C8.88336 2.77982 8.3367 2.60648 7.64336 2.60648H4.82336V6.60648ZM14.6051 14.6465V4.78648H16.6251V5.94648H16.9451C17.1051 5.53315 17.3584 5.23315 17.7051 5.04648C18.0651 4.84648 18.5051 4.74648 19.0251 4.74648H20.2051V6.60648H18.9451C18.2784 6.60648 17.7317 6.79315 17.3051 7.16648C16.8784 7.52648 16.6651 8.08648 16.6651 8.84648V14.6465H14.6051ZM22.3395 14.6465V4.78648H24.3995V14.6465H22.3395ZM23.3795 3.44648C22.9795 3.44648 22.6395 3.31982 22.3595 3.06648C22.0928 2.79982 21.9595 2.45982 21.9595 2.04648C21.9595 1.63315 22.0928 1.29982 22.3595 1.04648C22.6395 0.779817 22.9795 0.646483 23.3795 0.646483C23.7928 0.646483 24.1328 0.779817 24.3995 1.04648C24.6661 1.29982 24.7995 1.63315 24.7995 2.04648C24.7995 2.45982 24.6661 2.79982 24.3995 3.06648C24.1328 3.31982 23.7928 3.44648 23.3795 3.44648ZM30.5166 14.9265C29.81 14.9265 29.1766 14.8065 28.6166 14.5665C28.07 14.3265 27.63 13.9732 27.2966 13.5065C26.9766 13.0398 26.8166 12.4732 26.8166 11.8065C26.8166 11.1265 26.9766 10.5665 27.2966 10.1265C27.63 9.67315 28.0766 9.33315 28.6366 9.10648C29.21 8.87982 29.8566 8.76648 30.5766 8.76648H33.5766V8.12648C33.5766 7.55315 33.4033 7.09315 33.0566 6.74648C32.71 6.39982 32.1766 6.22648 31.4566 6.22648C30.75 6.22648 30.21 6.39315 29.8366 6.72648C29.4633 7.05982 29.2166 7.49315 29.0966 8.02648L27.1766 7.40648C27.3366 6.87315 27.59 6.39315 27.9366 5.96648C28.2966 5.52648 28.77 5.17315 29.3566 4.90648C29.9433 4.63982 30.65 4.50648 31.4766 4.50648C32.7566 4.50648 33.7633 4.83315 34.4966 5.48648C35.23 6.13982 35.5966 7.06648 35.5966 8.26648V12.3265C35.5966 12.7265 35.7833 12.9265 36.1566 12.9265H36.9966V14.6465H35.4566C34.99 14.6465 34.61 14.5265 34.3166 14.2865C34.0233 14.0465 33.8766 13.7198 33.8766 13.3065V13.2465H33.5766C33.47 13.4465 33.31 13.6798 33.0966 13.9465C32.8833 14.2132 32.57 14.4465 32.1566 14.6465C31.7433 14.8332 31.1966 14.9265 30.5166 14.9265ZM30.8166 13.2265C31.6433 13.2265 32.31 12.9932 32.8166 12.5265C33.3233 12.0465 33.5766 11.3932 33.5766 10.5665V10.3665H30.6966C30.15 10.3665 29.71 10.4865 29.3766 10.7265C29.0433 10.9532 28.8766 11.2932 28.8766 11.7465C28.8766 12.1998 29.05 12.5598 29.3966 12.8265C29.7433 13.0932 30.2166 13.2265 30.8166 13.2265ZM38.9996 14.6465V4.78648H41.0196V6.26648H41.3396C41.5263 5.86648 41.8596 5.49315 42.3396 5.14648C42.8196 4.79982 43.5329 4.62648 44.4796 4.62648C45.2263 4.62648 45.8863 4.79315 46.4596 5.12648C47.0463 5.45982 47.5063 5.93315 47.8396 6.54648C48.1729 7.14648 48.3396 7.87315 48.3396 8.72648V14.6465H46.2796V8.88648C46.2796 8.03315 46.0663 7.40648 45.6396 7.00648C45.2129 6.59315 44.6263 6.38648 43.8796 6.38648C43.0263 6.38648 42.3396 6.66648 41.8196 7.22648C41.3129 7.78648 41.0596 8.59982 41.0596 9.66648V14.6465H38.9996ZM57.4652 14.6465L55.4052 0.646483H57.5652L59.2452 13.1865H59.5652L61.7252 0.646483H65.5052L67.6652 13.1865H67.9852L69.6452 0.646483H71.8052L69.7452 14.6465H65.9652L63.7652 1.92648H63.4452L61.2652 14.6465H57.4652ZM73.9996 14.6465V4.78648H76.0596V14.6465H73.9996ZM75.0396 3.44648C74.6396 3.44648 74.2996 3.31982 74.0196 3.06648C73.7529 2.79982 73.6196 2.45982 73.6196 2.04648C73.6196 1.63315 73.7529 1.29982 74.0196 1.04648C74.2996 0.779817 74.6396 0.646483 75.0396 0.646483C75.4529 0.646483 75.7929 0.779817 76.0596 1.04648C76.3263 1.29982 76.4596 1.63315 76.4596 2.04648C76.4596 2.45982 76.3263 2.79982 76.0596 3.06648C75.7929 3.31982 75.4529 3.44648 75.0396 3.44648ZM79.1168 14.6465V0.646483H81.1768V14.6465H79.1168ZM84.234 14.6465V0.646483H86.294V14.6465H84.234ZM89.3512 14.6465V4.78648H91.4112V14.6465H89.3512ZM90.3912 3.44648C89.9912 3.44648 89.6512 3.31982 89.3712 3.06648C89.1045 2.79982 88.9712 2.45982 88.9712 2.04648C88.9712 1.63315 89.1045 1.29982 89.3712 1.04648C89.6512 0.779817 89.9912 0.646483 90.3912 0.646483C90.8045 0.646483 91.1445 0.779817 91.4112 1.04648C91.6778 1.29982 91.8112 1.63315 91.8112 2.04648C91.8112 2.45982 91.6778 2.79982 91.4112 3.06648C91.1445 3.31982 90.8045 3.44648 90.3912 3.44648ZM97.5284 14.9265C96.8217 14.9265 96.1884 14.8065 95.6284 14.5665C95.0817 14.3265 94.6417 13.9732 94.3084 13.5065C93.9884 13.0398 93.8284 12.4732 93.8284 11.8065C93.8284 11.1265 93.9884 10.5665 94.3084 10.1265C94.6417 9.67315 95.0884 9.33315 95.6484 9.10648C96.2217 8.87982 96.8684 8.76648 97.5884 8.76648H100.588V8.12648C100.588 7.55315 100.415 7.09315 100.068 6.74648C99.7217 6.39982 99.1884 6.22648 98.4684 6.22648C97.7617 6.22648 97.2217 6.39315 96.8484 6.72648C96.475 7.05982 96.2284 7.49315 96.1084 8.02648L94.1884 7.40648C94.3484 6.87315 94.6017 6.39315 94.9484 5.96648C95.3084 5.52648 95.7817 5.17315 96.3684 4.90648C96.955 4.63982 97.6617 4.50648 98.4884 4.50648C99.7684 4.50648 100.775 4.83315 101.508 5.48648C102.242 6.13982 102.608 7.06648 102.608 8.26648V12.3265C102.608 12.7265 102.795 12.9265 103.168 12.9265H104.008V14.6465H102.468C102.002 14.6465 101.622 14.5265 101.328 14.2865C101.035 14.0465 100.888 13.7198 100.888 13.3065V13.2465H100.588C100.482 13.4465 100.322 13.6798 100.108 13.9465C99.895 14.2132 99.5817 14.4465 99.1684 14.6465C98.755 14.8332 98.2084 14.9265 97.5284 14.9265ZM97.8284 13.2265C98.655 13.2265 99.3217 12.9932 99.8284 12.5265C100.335 12.0465 100.588 11.3932 100.588 10.5665V10.3665H97.7084C97.1617 10.3665 96.7217 10.4865 96.3884 10.7265C96.055 10.9532 95.8884 11.2932 95.8884 11.7465C95.8884 12.1998 96.0617 12.5598 96.4084 12.8265C96.755 13.0932 97.2284 13.2265 97.8284 13.2265ZM106.011 14.6465V4.78648H108.031V5.94648H108.351C108.538 5.59982 108.838 5.29315 109.251 5.02648C109.665 4.75982 110.225 4.62648 110.931 4.62648C111.665 4.62648 112.251 4.77982 112.691 5.08648C113.145 5.37982 113.485 5.75982 113.711 6.22648H114.031C114.258 5.77315 114.585 5.39315 115.011 5.08648C115.451 4.77982 116.071 4.62648 116.871 4.62648C117.511 4.62648 118.078 4.75982 118.571 5.02648C119.065 5.27982 119.458 5.66648 119.751 6.18648C120.045 6.69315 120.191 7.32648 120.191 8.08648V14.6465H118.131V8.24648C118.131 7.64648 117.965 7.18648 117.631 6.86648C117.311 6.53315 116.851 6.36648 116.251 6.36648C115.611 6.36648 115.098 6.57315 114.711 6.98648C114.325 7.39982 114.131 7.99315 114.131 8.76648V14.6465H112.071V8.24648C112.071 7.64648 111.905 7.18648 111.571 6.86648C111.251 6.53315 110.791 6.36648 110.191 6.36648C109.551 6.36648 109.038 6.57315 108.651 6.98648C108.265 7.39982 108.071 7.99315 108.071 8.76648V14.6465H106.011ZM127.2 14.9265C125.946 14.9265 124.906 14.6465 124.08 14.0865C123.253 13.5265 122.746 12.6798 122.56 11.5465L124.48 11.0865C124.586 11.6332 124.766 12.0665 125.02 12.3865C125.273 12.7065 125.586 12.9332 125.96 13.0665C126.346 13.1998 126.76 13.2665 127.2 13.2665C127.853 13.2665 128.353 13.1398 128.7 12.8865C129.06 12.6332 129.24 12.3065 129.24 11.9065C129.24 11.5065 129.073 11.2132 128.74 11.0265C128.406 10.8398 127.913 10.6865 127.26 10.5665L126.58 10.4465C125.913 10.3265 125.306 10.1532 124.76 9.92648C124.213 9.69982 123.78 9.38648 123.46 8.98648C123.14 8.58648 122.98 8.07315 122.98 7.44648C122.98 6.51315 123.326 5.79315 124.02 5.28648C124.713 4.76648 125.633 4.50648 126.78 4.50648C127.886 4.50648 128.793 4.75982 129.5 5.26648C130.22 5.75982 130.686 6.43315 130.9 7.28648L128.98 7.82648C128.86 7.22648 128.606 6.80648 128.22 6.56648C127.833 6.31315 127.353 6.18648 126.78 6.18648C126.22 6.18648 125.78 6.29315 125.46 6.50648C125.14 6.70648 124.98 6.99315 124.98 7.36648C124.98 7.76648 125.133 8.05982 125.44 8.24648C125.76 8.43315 126.186 8.57315 126.72 8.66648L127.42 8.78648C128.126 8.90648 128.773 9.07315 129.36 9.28648C129.946 9.49982 130.406 9.80648 130.74 10.2065C131.086 10.6065 131.26 11.1398 131.26 11.8065C131.26 12.7932 130.893 13.5598 130.16 14.1065C129.426 14.6532 128.44 14.9265 127.2 14.9265Z" fill="black"/>
</svg>
