<svg width="94" height="15" viewBox="0 0 94 15" fill="none" xmlns="http://www.w3.org/2000/svg">
<path d="M6.04336 14.9265C4.99003 14.9265 4.0567 14.7398 3.24336 14.3665C2.43003 13.9932 1.79003 13.4465 1.32336 12.7265C0.870031 11.9932 0.643364 11.1065 0.643364 10.0665V9.56648H2.78336V10.0665C2.78336 11.0532 3.0767 11.7932 3.66336 12.2865C4.26336 12.7798 5.0567 13.0265 6.04336 13.0265C7.04336 13.0265 7.7967 12.8198 8.30336 12.4065C8.81003 11.9798 9.06336 11.4332 9.06336 10.7665C9.06336 10.3265 8.94336 9.96648 8.70336 9.68648C8.46336 9.40648 8.12336 9.18648 7.68336 9.02648C7.24336 8.85315 6.7167 8.69315 6.10336 8.54648L5.36336 8.36648C4.47003 8.15315 3.69003 7.89315 3.02336 7.58648C2.37003 7.26648 1.86336 6.84648 1.50336 6.32648C1.14336 5.80648 0.963364 5.13982 0.963364 4.32648C0.963364 3.49982 1.16336 2.79315 1.56336 2.20648C1.9767 1.61982 2.54336 1.16648 3.26336 0.846483C3.98336 0.526483 4.83003 0.366483 5.80336 0.366483C6.7767 0.366483 7.64336 0.53315 8.40336 0.866484C9.1767 1.19982 9.78336 1.69315 10.2234 2.34648C10.6634 2.99982 10.8834 3.81982 10.8834 4.80648V5.52648H8.74336V4.80648C8.74336 4.20648 8.6167 3.71982 8.36336 3.34648C8.12336 2.97315 7.78336 2.69982 7.34336 2.52648C6.90336 2.35315 6.39003 2.26648 5.80336 2.26648C4.95003 2.26648 4.28336 2.44648 3.80336 2.80648C3.3367 3.15315 3.10336 3.63982 3.10336 4.26648C3.10336 4.69315 3.20336 5.04648 3.40336 5.32648C3.6167 5.59315 3.92336 5.81315 4.32336 5.98648C4.72336 6.15982 5.22336 6.31315 5.82336 6.44648L6.56336 6.62648C7.47003 6.82648 8.27003 7.08648 8.96336 7.40648C9.6567 7.71315 10.2034 8.13315 10.6034 8.66648C11.0034 9.19982 11.2034 9.88648 11.2034 10.7265C11.2034 11.5665 10.99 12.2998 10.5634 12.9265C10.15 13.5532 9.5567 14.0465 8.78336 14.4065C8.01003 14.7532 7.0967 14.9265 6.04336 14.9265ZM16.5909 14.9265C15.8842 14.9265 15.2509 14.8065 14.6909 14.5665C14.1442 14.3265 13.7042 13.9732 13.3709 13.5065C13.0509 13.0398 12.8909 12.4732 12.8909 11.8065C12.8909 11.1265 13.0509 10.5665 13.3709 10.1265C13.7042 9.67315 14.1509 9.33315 14.7109 9.10648C15.2842 8.87982 15.9309 8.76648 16.6509 8.76648H19.6509V8.12648C19.6509 7.55315 19.4775 7.09315 19.1309 6.74648C18.7842 6.39982 18.2509 6.22648 17.5309 6.22648C16.8242 6.22648 16.2842 6.39315 15.9109 6.72648C15.5375 7.05982 15.2909 7.49315 15.1709 8.02648L13.2509 7.40648C13.4109 6.87315 13.6642 6.39315 14.0109 5.96648C14.3709 5.52648 14.8442 5.17315 15.4309 4.90648C16.0175 4.63982 16.7242 4.50648 17.5509 4.50648C18.8309 4.50648 19.8375 4.83315 20.5709 5.48648C21.3042 6.13982 21.6709 7.06648 21.6709 8.26648V12.3265C21.6709 12.7265 21.8575 12.9265 22.2309 12.9265H23.0709V14.6465H21.5309C21.0642 14.6465 20.6842 14.5265 20.3909 14.2865C20.0975 14.0465 19.9509 13.7198 19.9509 13.3065V13.2465H19.6509C19.5442 13.4465 19.3842 13.6798 19.1709 13.9465C18.9575 14.2132 18.6442 14.4465 18.2309 14.6465C17.8175 14.8332 17.2709 14.9265 16.5909 14.9265ZM16.8909 13.2265C17.7175 13.2265 18.3842 12.9932 18.8909 12.5265C19.3975 12.0465 19.6509 11.3932 19.6509 10.5665V10.3665H16.7709C16.2242 10.3665 15.7842 10.4865 15.4509 10.7265C15.1175 10.9532 14.9509 11.2932 14.9509 11.7465C14.9509 12.1998 15.1242 12.5598 15.4709 12.8265C15.8175 13.0932 16.2909 13.2265 16.8909 13.2265ZM25.0738 14.6465V4.78648H27.0938V5.94648H27.4138C27.5738 5.53315 27.8272 5.23315 28.1738 5.04648C28.5338 4.84648 28.9738 4.74648 29.4938 4.74648H30.6738V6.60648H29.4138C28.7472 6.60648 28.2005 6.79315 27.7738 7.16648C27.3472 7.52648 27.1338 8.08648 27.1338 8.84648V14.6465H25.0738ZM35.5948 14.9265C34.8881 14.9265 34.2548 14.8065 33.6948 14.5665C33.1481 14.3265 32.7081 13.9732 32.3748 13.5065C32.0548 13.0398 31.8948 12.4732 31.8948 11.8065C31.8948 11.1265 32.0548 10.5665 32.3748 10.1265C32.7081 9.67315 33.1548 9.33315 33.7148 9.10648C34.2881 8.87982 34.9348 8.76648 35.6548 8.76648H38.6548V8.12648C38.6548 7.55315 38.4814 7.09315 38.1348 6.74648C37.7881 6.39982 37.2548 6.22648 36.5348 6.22648C35.8281 6.22648 35.2881 6.39315 34.9148 6.72648C34.5414 7.05982 34.2948 7.49315 34.1748 8.02648L32.2548 7.40648C32.4148 6.87315 32.6681 6.39315 33.0148 5.96648C33.3748 5.52648 33.8481 5.17315 34.4348 4.90648C35.0214 4.63982 35.7281 4.50648 36.5548 4.50648C37.8348 4.50648 38.8414 4.83315 39.5748 5.48648C40.3081 6.13982 40.6748 7.06648 40.6748 8.26648V12.3265C40.6748 12.7265 40.8614 12.9265 41.2348 12.9265H42.0748V14.6465H40.5348C40.0681 14.6465 39.6881 14.5265 39.3948 14.2865C39.1014 14.0465 38.9548 13.7198 38.9548 13.3065V13.2465H38.6548C38.5481 13.4465 38.3881 13.6798 38.1748 13.9465C37.9614 14.2132 37.6481 14.4465 37.2348 14.6465C36.8214 14.8332 36.2748 14.9265 35.5948 14.9265ZM35.8948 13.2265C36.7214 13.2265 37.3881 12.9932 37.8948 12.5265C38.4014 12.0465 38.6548 11.3932 38.6548 10.5665V10.3665H35.7748C35.2281 10.3665 34.7881 10.4865 34.4548 10.7265C34.1214 10.9532 33.9548 11.2932 33.9548 11.7465C33.9548 12.1998 34.1281 12.5598 34.4748 12.8265C34.8214 13.0932 35.2948 13.2265 35.8948 13.2265ZM44.0777 14.6465V0.646483H46.1377V6.18648H46.4577C46.5911 5.93315 46.7777 5.68648 47.0177 5.44648C47.2711 5.20648 47.5977 5.01315 47.9977 4.86648C48.4111 4.70648 48.9311 4.62648 49.5577 4.62648C50.3044 4.62648 50.9644 4.79315 51.5377 5.12648C52.1244 5.45982 52.5844 5.93315 52.9177 6.54648C53.2511 7.14648 53.4177 7.87315 53.4177 8.72648V14.6465H51.3577V8.88648C51.3577 8.03315 51.1444 7.40648 50.7177 7.00648C50.2911 6.59315 49.7044 6.38648 48.9577 6.38648C48.1044 6.38648 47.4177 6.66648 46.8977 7.22648C46.3911 7.78648 46.1377 8.59982 46.1377 9.66648V14.6465H44.0777ZM61.4201 14.6465V0.646483H63.5801V6.46648H63.9001L69.1201 0.646483H71.9401L65.6201 7.54648L72.1601 14.6465H69.2601L63.9001 8.70648H63.5801V14.6465H61.4201ZM73.8434 14.6465V4.78648H75.9034V14.6465H73.8434ZM74.8834 3.44648C74.4834 3.44648 74.1434 3.31982 73.8634 3.06648C73.5967 2.79982 73.4634 2.45982 73.4634 2.04648C73.4634 1.63315 73.5967 1.29982 73.8634 1.04648C74.1434 0.779817 74.4834 0.646483 74.8834 0.646483C75.2967 0.646483 75.6367 0.779817 75.9034 1.04648C76.17 1.29982 76.3034 1.63315 76.3034 2.04648C76.3034 2.45982 76.17 2.79982 75.9034 3.06648C75.6367 3.31982 75.2967 3.44648 74.8834 3.44648ZM78.9606 14.6465V4.78648H80.9806V5.94648H81.3006C81.4872 5.59982 81.7872 5.29315 82.2006 5.02648C82.6139 4.75982 83.1739 4.62648 83.8806 4.62648C84.6139 4.62648 85.2006 4.77982 85.6406 5.08648C86.0939 5.37982 86.4339 5.75982 86.6606 6.22648H86.9806C87.2072 5.77315 87.5339 5.39315 87.9606 5.08648C88.4006 4.77982 89.0206 4.62648 89.8206 4.62648C90.4606 4.62648 91.0272 4.75982 91.5206 5.02648C92.0139 5.27982 92.4072 5.66648 92.7006 6.18648C92.9939 6.69315 93.1406 7.32648 93.1406 8.08648V14.6465H91.0806V8.24648C91.0806 7.64648 90.9139 7.18648 90.5806 6.86648C90.2606 6.53315 89.8006 6.36648 89.2006 6.36648C88.5606 6.36648 88.0472 6.57315 87.6606 6.98648C87.2739 7.39982 87.0806 7.99315 87.0806 8.76648V14.6465H85.0206V8.24648C85.0206 7.64648 84.8539 7.18648 84.5206 6.86648C84.2006 6.53315 83.7406 6.36648 83.1406 6.36648C82.5006 6.36648 81.9872 6.57315 81.6006 6.98648C81.2139 7.39982 81.0206 7.99315 81.0206 8.76648V14.6465H78.9606Z" fill="black"/>
</svg>
